Coordinates
version=1
nRows=8
nColumns=60
inDegrees=yes

Units are S.I. units (second, meters, Newtons, ...)
If the header above contains a line with 'inDegrees', this indicates whether rotational values are in degrees (yes) or radians (no).

endheader
time	pelvis_tilt	pelvis_list	pelvis_rotation	pelvis_tx	pelvis_ty	pelvis_tz	hip_flexion_r	hip_adduction_r	hip_rotation_r	knee_angle_r_beta	knee_angle_r	ankle_angle_r	subtalar_angle_r	mtp_angle_r	hip_flexion_l	hip_adduction_l	hip_rotation_l	knee_angle_l_beta	knee_angle_l	ankle_angle_l	subtalar_angle_l	mtp_angle_l	L5_S1_Flex_Ext	L5_S1_Lat_Bending	L5_S1_axial_rotation	L4_L5_Flex_Ext	L4_L5_Lat_Bending	L4_L5_axial_rotation	L3_L4_Flex_Ext	L3_L4_Lat_Bending	L3_L4_axial_rotation	L2_L3_Flex_Ext	L2_L3_Lat_Bending	L2_L3_axial_rotation	L1_L2_Flex_Ext	L1_L2_Lat_Bending	L1_L2_axial_rotation	L1_T12_Flex_Ext	L1_T12_Lat_Bending	L1_T12_axial_rotation	Abs_r3	Abs_r2	Abs_r1	Abs_t1	Abs_t2	arm_flex_r	arm_add_r	arm_rot_r	elbow_flex_r	pro_sup_r	wrist_flex_r	wrist_dev_r	arm_flex_l	arm_add_l	arm_rot_l	elbow_flex_l	pro_sup_l	wrist_flex_l	wrist_dev_l
     69.35000000	      1.14100778	     -5.06690203	     93.40034851	      0.39568978	      0.89824445	      0.39029302	     29.06288033	     -5.18303335	      1.67743705	      0.45877673	    -26.28597012	      4.99110264	      0.00000000	      0.00000000	     30.82905938	     -5.05982717	      1.75824116	      0.46264212	    -26.50744105	      5.10894155	      0.00000000	      0.00000000	    -11.14251484	      0.47277140	      0.21685171	    -20.69276432	      0.62878597	      0.23040495	    -18.30603764	      1.14949639	      0.23040495	    -12.73478021	      1.14949639	      0.18974525	    -10.34693928	      0.96407545	      0.17619202	     -6.36683298	      0.73232290	      0.16263879	    -79.58986927	      5.34808467	      1.20606418	      0.00000000	      0.00000000	     59.28325340	    -23.82004890	     12.95168270	     59.44743286	     75.72221068	      7.57783538	      6.85161080	     63.91584130	    -18.90183257	     23.94552513	     53.06868503	     64.17749658	      7.07583658	      7.64017759
     69.36000000	      1.17623214	     -5.44005339	     93.59519000	      0.39500286	      0.89630697	      0.39192493	     29.85838860	     -5.30235662	      1.58315322	      0.46893365	    -26.86791894	      5.18155622	      0.00000000	      0.00000000	     31.72713273	     -4.96668141	      1.77554333	      0.47317802	    -27.11110357	      5.30395654	      0.00000000	      0.00000000	    -11.17458099	      0.49516718	      0.22268680	    -20.75231436	      0.65857234	      0.23660473	    -18.35871911	      1.20394947	      0.23660473	    -12.77142861	      1.20394947	      0.19485095	    -10.37671591	      1.00974490	      0.18093303	     -6.38515558	      0.76701395	      0.16701510	    -79.81891455	      5.60143012	      1.23851719	      0.00000000	      0.00000000	     60.55227685	    -23.75068933	     13.05924568	     58.56157205	     75.89217524	      7.70598853	      6.49156875	     65.18844906	    -18.42980780	     24.08322887	     52.05612088	     64.27584540	      7.17517472	      7.13523371
     69.37000000	      1.18472606	     -5.76605383	     93.72071850	      0.39447518	      0.89446936	      0.39346612	     30.61514704	     -5.40521182	      1.55895571	      0.47919857	    -27.45605590	      5.30656349	      0.00000000	      0.00000000	     32.52889156	     -4.88934771	      1.75852892	      0.48326398	    -27.68898661	      5.41905319	      0.00000000	      0.00000000	    -11.21500221	      0.50549376	      0.22673356	    -20.82738061	      0.67230671	      0.24090441	    -18.42512713	      1.22905754	      0.24090441	    -12.81762603	      1.22905754	      0.19839187	    -10.41425105	      1.03080288	      0.18422102	     -6.40825226	      0.78300984	      0.17005017	    -80.10763930	      5.71824656	      1.26102406	      0.00000000	      0.00000000	     61.73617558	    -23.64090259	     13.00874318	     57.67854647	     76.72104580	      9.04619179	      4.32741015	     66.39711553	    -18.04770505	     24.18890254	     51.06680619	     64.72095111	      8.03510261	      4.31902811
     69.38000000	      1.16450373	     -6.05102212	     93.74541901	      0.39410498	      0.89271558	      0.39492387	     31.34926363	     -5.50242417	      1.49845483	      0.48955680	    -28.04953843	      5.41223109	      0.00000000	      0.00000000	     33.24916073	     -4.83901756	      1.68289513	      0.49300794	    -28.24727437	      5.50935834	      0.00000000	      0.00000000	    -11.27055978	      0.50331063	      0.22849663	    -20.93055657	      0.66940313	      0.24277767	    -18.51640267	      1.22374946	      0.24277767	    -12.88112278	      1.22374946	      0.19993455	    -10.46584181	      1.02635103	      0.18565351	     -6.43999786	      0.77962816	      0.17137247	    -80.50448147	      5.69355046	      1.27082970	      0.00000000	      0.00000000	     62.90059262	    -23.52406269	     12.97120035	     57.25522365	     76.74476223	      9.12607520	      4.35325809	     67.51477481	    -17.83449587	     24.10455848	     50.69034035	     64.70496292	      8.04037358	      4.33100701
     69.39000000	      1.14042723	     -6.35982503	     93.79952998	      0.39372751	      0.89093765	      0.39634164	     32.09151880	     -5.59223703	      1.59256848	      0.49992290	    -28.64347235	      5.49423370	      0.00000000	      0.00000000	     33.96313102	     -4.77947151	      1.62880407	      0.50179166	    -28.75054415	      5.58735507	      0.00000000	      0.00000000	    -11.31726553	      0.50134846	      0.22675698	    -21.01729382	      0.66679346	      0.24092929	    -18.59313554	      1.21897865	      0.24092929	    -12.93450278	      1.21897865	      0.19841236	    -10.50921277	      1.02234979	      0.18424005	     -6.46668553	      0.77658877	      0.17006774	    -80.83809597	      5.67135409	      1.26115430	      0.00000000	      0.00000000	     64.01805299	    -23.43270886	     12.94722973	     56.81437155	     76.78013217	      9.20556832	      4.37034866	     68.64805177	    -17.63193258	     24.05279672	     50.35731898	     64.71636004	      8.04673653	      4.32883835
     69.40000000	      1.09760195	     -6.89965581	     93.77289207	      0.39344075	      0.88880048	      0.39776391	     33.10910216	     -5.69223274	      1.62226516	      0.51039595	    -29.24353397	      5.71012223	      0.00000000	      0.00000000	     34.89084969	     -4.74201799	      1.39870799	      0.50974882	    -29.20645622	      5.74146982	      0.00000000	      0.00000000	    -11.31142339	      0.48817367	      0.21682267	    -21.00644438	      0.64927098	      0.23037409	    -18.58353749	      1.18694546	      0.23037409	    -12.92782580	      1.18694546	      0.18971984	    -10.50378776	      0.99548374	      0.17616842	     -6.46334733	      0.75618101	      0.16261700	    -80.79636616	      5.52231816	      1.20590265	      0.00000000	      0.00000000	     65.16043132	    -23.20354254	     13.12858438	     55.96506064	     76.92515552	      9.51108965	      4.35653568	     69.75465004	    -17.44709547	     24.26785353	     49.57181184	     64.80850997	      8.10809661	      4.30769205
     69.41000000	      1.04468133	     -7.26194350	     93.74286613	      0.39312978	      0.88699526	      0.39901303	     33.92665151	     -5.78468063	      1.67420478	      0.52101225	    -29.85180321	      5.80849500	      0.00000000	      0.00000000	     35.60385754	     -4.70884331	      1.18199102	      0.51748254	    -29.64956530	      5.80080400	      0.00000000	      0.00000000	    -11.33994919	      0.47721672	      0.21323347	    -21.05941965	      0.63469824	      0.22656056	    -18.63040253	      1.16030474	      0.22656056	    -12.96042793	      1.16030474	      0.18657929	    -10.53027682	      0.97314034	      0.17325219	     -6.47964697	      0.73920871	      0.15992510	    -81.00012310	      5.39837103	      1.18594059	      0.00000000	      0.00000000	     66.21239871	    -23.07187024	     13.13748546	     55.50853940	     77.02988757	      9.73504913	      4.29503733	     70.80719591	    -17.32491086	     24.34759926	     49.17489891	     64.89203310	      8.16146468	      4.25388401
     69.42000000	      0.98267135	     -7.64273636	     93.71439796	      0.39278888	      0.88521185	      0.40022017	     34.73610560	     -5.86694860	      1.85052974	      0.53097629	    -30.42270040	      5.91170650	      0.00000000	      0.00000000	     36.30947006	     -4.64665772	      1.05071313	      0.52442557	    -30.04737164	      5.83009712	      0.00000000	      0.00000000	    -11.35964845	      0.46388575	      0.20487268	    -21.09600313	      0.61696805	      0.21767722	    -18.66276643	      1.12789182	      0.21767722	    -12.98294221	      1.12789182	      0.17926360	    -10.54856955	      0.94595583	      0.16645905	     -6.49090312	      0.71855903	      0.15365451	    -81.14083289	      5.24756844	      1.13944039	      0.00000000	      0.00000000	     67.23143812	    -22.91845909	     13.15587372	     54.97861816	     77.18253782	     10.06172367	      4.14646919	     71.85759639	    -17.22343158	     24.53234884	     48.72095916	     65.03873485	      8.25949482	      4.15298192
